<svg xmlns="http://www.w3.org/2000/svg" width="32" height="32" viewBox="0 0 32 32">
  <defs>
    <linearGradient id="gradient_fav" x1="0%" y1="100%" x2="0%" y2="0%">
      <stop offset="0%" style="stop-color:#025aa8;stop-opacity:1" />
      <stop offset="100%" style="stop-color:#0094e8;stop-opacity:1" />
    </linearGradient>
  </defs>
  <path d="M10,13a3,3 0 1,0 0,-6 3,3 0 0,0 0,6zm0,1a5,5 0 0,1 5,5v3H5v-3a5,5 0 0,1 5,-5z" fill="url(#gradient_fav)" opacity="0.7"/>
  <path d="M22,13a3,3 0 1,0 0,-6 3,3 0 0,0 0,6zm0,1a5,5 0 0,1 5,5v3H17v-3a5,5 0 0,1 5,-5z" fill="url(#gradient_fav)" opacity="1"/>
  <path d="M2,19l14,-5l4,2l10,-6l-3,-1l5,-1l-1,5l-3,-1l-8,5l-4,-2z" fill="#003d73"/>
</svg>
